PathFileType	4	(X/Y/Z)	SUBJ36_2_walk_RCNL2025.trc
DataRate	CameraRate	NumFrames	NumMarkers	Units	OrigDataRate	OrigDataStartFrame	OrigNumFrames
100	100	7	25	mm	100	250	399
Frame#	Time	R_Shoulder			L_Shoulder			C7			J_Notch			R_Elbow			L_Elbow			R_Wrist			L_Wrist			R_Asis			L_Asis			Sacral			Thoracic			Sternum			R_Thigh_Lateral			R_Knee_Lateral			R_Shank_Lateral			R_Ankle_Lateral			R_Heel			R_Toe			L_Thigh_Lateral			L_Knee_Lateral			L_Shank_Lateral			L_Ankle_Lateral			L_Heel			L_Toe		
		X1	Y1	Z1	X2	Y2	Z2	X3	Y3	Z3	X4	Y4	Z4	X5	Y5	Z5	X6	Y6	Z6	X7	Y7	Z7	X8	Y8	Z8	X9	Y9	Z9	X10	Y10	Z10	X11	Y11	Z11	X12	Y12	Z12	X13	Y13	Z13	X14	Y14	Z14	X15	Y15	Z15	X16	Y16	Z16	X17	Y17	Z17	X18	Y18	Z18	X19	Y19	Z19	X20	Y20	Z20	X21	Y21	Z21	X22	Y22	Z22	X23	Y23	Z23	X24	Y24	Z24	X25	Y25	Z25
250	2.49000000	1160.501343	1352.265503	-145.972321	1191.151611	1317.228882	-488.786835	1111.686279	1406.980103	-314.544861	1246.060913	1296.964111	-300.801575	1057.242798	1048.096924	-63.556538	1145.948853	1002.521912	-537.369385	1101.126953	817.384247	-8.191309	1245.294800	790.690155	-518.157822	1216.309692	913.519958	-178.861221	1234.127686	907.681152	-406.667023	1005.403625	897.813416	-298.499725	1025.178101	1151.722168	-314.464050	1272.819214	1117.849365	-280.372162	1255.525513	517.860779	-106.780113	1269.831909	460.911072	-149.713013	1153.890381	297.878540	-114.558350	1093.720337	135.919128	-178.385818	1050.361206	125.212364	-232.803131	1192.455811	65.621971	-173.299286	1119.560669	512.915649	-461.595215	1104.465454	442.839417	-384.568451	1054.509766	232.186920	-401.743896	1035.429443	71.085976	-315.943115	995.455261	45.416336	-260.834900	1163.432495	42.623543	-292.368652
251	2.50000000	1170.838989	1351.383667	-146.212067	1202.521973	1316.192627	-488.986969	1122.562256	1405.953735	-315.033569	1256.925781	1295.950562	-300.887115	1065.837524	1047.625488	-64.063843	1159.479248	1001.193848	-537.589417	1108.241394	816.911713	-7.639614	1261.679260	790.842438	-516.801819	1226.834106	913.197205	-178.729462	1244.292603	906.516724	-406.629852	1015.818054	896.822998	-297.552948	1035.843994	1150.777588	-314.943207	1283.183228	1116.729614	-280.568390	1271.474365	519.043518	-107.021011	1286.170898	461.602448	-150.087387	1179.178589	291.647919	-113.688225	1127.575073	126.805077	-177.311813	1084.541748	113.690140	-231.431870	1230.317871	62.541702	-172.679474	1121.086548	513.596924	-461.506683	1106.225464	443.464661	-384.440613	1054.890991	232.977203	-401.401428	1035.583496	71.779564	-315.539520	995.651611	46.488739	-260.303925	1163.621094	42.556225	-292.380310
252	2.51000000	1181.277710	1350.283081	-146.428421	1213.861450	1314.879761	-489.165802	1133.465454	1404.728516	-315.492371	1267.815918	1294.723022	-300.972931	1074.640991	1046.925659	-64.556770	1172.933594	999.629150	-537.777893	1115.593567	816.206665	-7.152572	1278.017212	790.835571	-515.448837	1237.394775	912.664795	-178.548691	1254.458984	905.302490	-406.614807	1026.265625	895.649231	-296.630066	1046.496094	1149.659790	-315.300568	1293.535889	1115.372803	-280.769562	1286.576782	519.814392	-107.321594	1301.827026	461.864716	-150.463287	1204.632812	285.224152	-112.969467	1161.995728	118.000496	-176.603409	1119.402710	102.574394	-230.410736	1268.381470	59.924488	-172.795486	1122.973511	514.313782	-461.350006	1108.368164	444.118195	-384.243256	1055.464478	233.859009	-400.967438	1035.798706	72.564102	-315.046356	995.862793	47.721859	-259.666351	1163.825195	42.485451	-292.346497
253	2.52000000	1191.821533	1348.987793	-146.615631	1225.166260	1313.316528	-489.315430	1144.395996	1403.328247	-315.911682	1278.729980	1293.305298	-301.052948	1083.666382	1046.017090	-65.025627	1186.323486	997.852661	-537.929565	1123.196411	815.284546	-6.731733	1294.293030	790.679749	-514.088928	1248.003174	911.928467	-178.330429	1264.643066	904.069336	-406.636627	1036.757935	894.308594	-295.726532	1057.138306	1148.388672	-315.534515	1303.903076	1113.811157	-280.955750	1300.817505	520.126953	-107.678741	1316.792358	461.696442	-150.853088	1230.206665	278.768066	-112.434731	1196.890137	109.678406	-176.263809	1154.821533	92.019333	-229.734131	1306.540527	57.920853	-173.650040	1125.340454	515.043701	-461.130493	1110.945557	444.786011	-383.985565	1056.247070	234.836121	-400.459167	1036.081055	73.443687	-314.485962	996.110657	49.103073	-258.952209	1164.045654	42.415466	-292.270111
254	2.53000000	1202.471680	1347.526245	-146.768646	1236.430176	1311.538940	-489.430115	1155.351562	1401.780273	-316.282288	1289.665894	1291.727661	-301.122131	1092.923828	1044.922729	-65.461060	1199.660156	995.896423	-538.037659	1131.060486	814.164612	-6.378439	1310.489502	790.389954	-512.713303	1258.674072	910.997925	-178.083313	1274.865601	902.839722	-406.702209	1047.310303	892.823425	-294.837952	1067.776978	1146.985962	-315.645355	1314.313721	1112.083740	-281.110901	1314.193726	519.940552	-108.101173	1331.063232	461.107391	-151.282150	1255.829224	272.442902	-112.114189	1232.125977	102.000908	-176.282928	1190.637817	82.166428	-229.380875	1344.652832	56.659870	-175.221848	1128.279785	515.761169	-460.862976	1113.998413	445.453094	-383.686096	1057.253052	235.910156	-399.905792	1036.435913	74.421227	-313.894440	996.414490	50.616165	-258.205170	1164.283447	42.351452	-292.160004
255	2.54000000	1213.225952	1345.930542	-146.882721	1247.646362	1309.590820	-489.506104	1166.328857	1400.114380	-316.595276	1300.622437	1290.024658	-301.176056	1102.421387	1043.668457	-65.854347	1212.954590	993.798950	-538.094055	1139.195007	812.869202	-6.093416	1326.588196	789.985321	-511.315491	1269.424805	909.887878	-177.812836	1285.151978	901.626892	-406.809723	1057.940430	891.220947	-293.961273	1078.421753	1145.473633	-315.635406	1324.794434	1110.233887	-281.224426	1326.717163	519.224731	-108.609207	1344.645386	460.118896	-151.786819	1281.406982	266.404785	-112.033119	1267.526611	95.112030	-176.639664	1226.650024	73.142166	-229.318573	1382.535767	56.238495	-177.464111	1131.855347	516.440186	-460.571350	1117.556519	446.104156	-383.371857	1058.499146	237.079269	-399.347504	1036.868408	75.498955	-313.319489	996.786377	52.246078	-257.479919	1164.539795	42.299156	-292.030945
256	2.55000000	1224.079834	1344.234619	-146.953033	1258.808838	1307.521606	-489.541138	1177.323242	1398.362061	-316.842072	1311.598999	1288.233887	-301.210602	1112.164551	1042.281616	-66.197746	1226.216553	991.603455	-538.089783	1147.608398	811.422913	-5.876401	1342.570251	789.488586	-509.891830	1280.274292	908.617615	-177.521790	1295.529907	900.435547	-406.949280	1068.668579	889.531555	-293.095337	1089.084717	1143.874023	-315.508911	1335.366089	1108.305786	-281.292114	1338.416626	517.964478	-109.232460	1357.559448	458.764313	-152.410568	1306.827637	260.793243	-112.210037	1302.869751	89.129288	-177.305557	1262.615112	65.053688	-229.510071	1419.966309	56.711617	-180.306152	1136.105957	517.057190	-460.286804	1121.639648	446.724609	-383.075470	1060.008789	238.337463	-398.832520	1037.383911	76.679008	-312.815887	997.229370	53.982925	-256.837219	1164.816772	42.264450	-291.902466
